<svg width="473" height="77" viewBox="0 0 473 77" fill="none" xmlns="http://www.w3.org/2000/svg">
<path d="M368.535 59.0376C368.535 59.5152 368.503 59.9451 368.439 60.3272H358.768C358.847 61.2824 359.182 62.0306 359.771 62.5719C360.36 63.1132 361.084 63.3838 361.944 63.3838C363.185 63.3838 364.069 62.8505 364.594 61.7838H368.2C367.818 63.0574 367.086 64.1082 366.003 64.936C364.921 65.7479 363.591 66.1539 362.015 66.1539C360.742 66.1539 359.595 65.8753 358.577 65.3181C357.574 64.745 356.786 63.941 356.212 62.9062C355.655 61.8714 355.377 60.6774 355.377 59.3242C355.377 57.9551 355.655 56.7531 356.212 55.7183C356.77 54.6835 357.55 53.8875 358.553 53.3303C359.556 52.7731 360.71 52.4945 362.015 52.4945C363.273 52.4945 364.395 52.7652 365.382 53.3064C366.385 53.8477 367.157 54.6198 367.699 55.6228C368.256 56.6098 368.535 57.7481 368.535 59.0376ZM365.072 58.0824C365.056 57.2228 364.746 56.5382 364.141 56.0288C363.536 55.5034 362.795 55.2407 361.92 55.2407C361.092 55.2407 360.391 55.4954 359.818 56.0049C359.261 56.4984 358.919 57.1909 358.792 58.0824H365.072ZM376.013 62.8584L379.357 52.7094H382.915L378.019 65.939H373.96L369.088 52.7094H372.67L376.013 62.8584ZM396.613 59.0376C396.613 59.5152 396.581 59.9451 396.518 60.3272H386.846C386.926 61.2824 387.26 62.0306 387.849 62.5719C388.438 63.1132 389.163 63.3838 390.022 63.3838C391.264 63.3838 392.148 62.8505 392.673 61.7838H396.279C395.897 63.0574 395.164 64.1082 394.082 64.936C392.999 65.7479 391.67 66.1539 390.094 66.1539C388.82 66.1539 387.674 65.8753 386.655 65.3181C385.652 64.745 384.864 63.941 384.291 62.9062C383.734 61.8714 383.455 60.6774 383.455 59.3242C383.455 57.9551 383.734 56.7531 384.291 55.7183C384.848 54.6835 385.628 53.8875 386.631 53.3303C387.634 52.7731 388.788 52.4945 390.094 52.4945C391.352 52.4945 392.474 52.7652 393.461 53.3064C394.464 53.8477 395.236 54.6198 395.777 55.6228C396.335 56.6098 396.613 57.7481 396.613 59.0376ZM393.151 58.0824C393.135 57.2228 392.824 56.5382 392.219 56.0288C391.614 55.5034 390.874 55.2407 389.998 55.2407C389.171 55.2407 388.47 55.4954 387.897 56.0049C387.34 56.4984 386.997 57.1909 386.87 58.0824H393.151ZM401.919 54.7631C402.349 54.0626 402.906 53.5134 403.591 53.1154C404.291 52.7174 405.087 52.5184 405.979 52.5184V56.0288H405.095C404.044 56.0288 403.248 56.2755 402.707 56.769C402.182 57.2626 401.919 58.1222 401.919 59.3481V65.939H398.576V52.7094H401.919V54.7631ZM420.409 52.7094L412.218 72.1955H408.66L411.526 65.6046L406.225 52.7094H409.974L413.389 61.951L416.851 52.7094H420.409ZM427.608 66.1539C426.335 66.1539 425.188 65.8753 424.17 65.3181C423.151 64.745 422.347 63.941 421.758 62.9062C421.185 61.8714 420.898 60.6774 420.898 59.3242C420.898 57.971 421.193 56.777 421.782 55.7422C422.387 54.7074 423.206 53.9114 424.241 53.3542C425.276 52.7811 426.43 52.4945 427.704 52.4945C428.977 52.4945 430.132 52.7811 431.166 53.3542C432.201 53.9114 433.013 54.7074 433.602 55.7422C434.207 56.777 434.51 57.971 434.51 59.3242C434.51 60.6774 434.199 61.8714 433.578 62.9062C432.973 63.941 432.146 64.745 431.095 65.3181C430.06 65.8753 428.898 66.1539 427.608 66.1539ZM427.608 63.2405C428.213 63.2405 428.778 63.0972 429.304 62.8107C429.845 62.5082 430.275 62.0624 430.593 61.4734C430.912 60.8844 431.071 60.168 431.071 59.3242C431.071 58.0665 430.737 57.1034 430.068 56.4347C429.415 55.7502 428.611 55.4079 427.656 55.4079C426.701 55.4079 425.897 55.7502 425.244 56.4347C424.607 57.1034 424.289 58.0665 424.289 59.3242C424.289 60.5819 424.599 61.553 425.22 62.2376C425.857 62.9062 426.653 63.2405 427.608 63.2405ZM443.816 52.5184C445.392 52.5184 446.665 53.0199 447.636 54.0228C448.608 55.0099 449.093 56.3949 449.093 58.178V65.939H445.75V58.6317C445.75 57.581 445.487 56.777 444.962 56.2198C444.436 55.6467 443.72 55.3601 442.813 55.3601C441.889 55.3601 441.157 55.6467 440.616 56.2198C440.09 56.777 439.828 57.581 439.828 58.6317V65.939H436.484V52.7094H439.828V54.3572C440.273 53.784 440.839 53.3383 441.523 53.0199C442.224 52.6856 442.988 52.5184 443.816 52.5184ZM464.093 59.0376C464.093 59.5152 464.061 59.9451 463.997 60.3272H454.326C454.406 61.2824 454.74 62.0306 455.329 62.5719C455.918 63.1132 456.642 63.3838 457.502 63.3838C458.744 63.3838 459.627 62.8505 460.153 61.7838H463.759C463.376 63.0574 462.644 64.1082 461.562 64.936C460.479 65.7479 459.15 66.1539 457.574 66.1539C456.3 66.1539 455.154 65.8753 454.135 65.3181C453.132 64.745 452.344 63.941 451.771 62.9062C451.214 61.8714 450.935 60.6774 450.935 59.3242C450.935 57.9551 451.214 56.7531 451.771 55.7183C452.328 54.6835 453.108 53.8875 454.111 53.3303C455.114 52.7731 456.268 52.4945 457.574 52.4945C458.831 52.4945 459.954 52.7652 460.941 53.3064C461.944 53.8477 462.716 54.6198 463.257 55.6228C463.814 56.6098 464.093 57.7481 464.093 59.0376ZM460.63 58.0824C460.614 57.2228 460.304 56.5382 459.699 56.0288C459.094 55.5034 458.354 55.2407 457.478 55.2407C456.65 55.2407 455.95 55.4954 455.377 56.0049C454.819 56.4984 454.477 57.1909 454.35 58.0824H460.63ZM467.536 66.1061C466.931 66.1061 466.43 65.923 466.032 65.5569C465.65 65.1748 465.459 64.7052 465.459 64.148C465.459 63.5908 465.65 63.1291 466.032 62.7629C466.43 62.3808 466.931 62.1898 467.536 62.1898C468.125 62.1898 468.611 62.3808 468.993 62.7629C469.375 63.1291 469.566 63.5908 469.566 64.148C469.566 64.7052 469.375 65.1748 468.993 65.5569C468.611 65.923 468.125 66.1061 467.536 66.1061Z" fill="black"/>
<path d="M363.973 46.6672C362.413 46.6672 360.981 46.301 359.675 45.5687C358.37 44.8364 357.335 43.8254 356.571 42.5359C355.807 41.2305 355.424 39.7579 355.424 38.1181C355.424 36.4943 355.807 35.0376 356.571 33.7481C357.335 32.4426 358.37 31.4237 359.675 30.6914C360.981 29.9591 362.413 29.5929 363.973 29.5929C365.55 29.5929 366.982 29.9591 368.272 30.6914C369.577 31.4237 370.604 32.4426 371.352 33.7481C372.117 35.0376 372.499 36.4943 372.499 38.1181C372.499 39.7579 372.117 41.2305 371.352 42.5359C370.604 43.8254 369.577 44.8364 368.272 45.5687C366.966 46.301 365.534 46.6672 363.973 46.6672ZM363.973 43.6822C364.976 43.6822 365.86 43.4593 366.624 43.0135C367.388 42.5518 367.985 41.8991 368.415 41.0554C368.845 40.2116 369.06 39.2325 369.06 38.1181C369.06 37.0037 368.845 36.0326 368.415 35.2047C367.985 34.361 367.388 33.7162 366.624 33.2705C365.86 32.8247 364.976 32.6018 363.973 32.6018C362.971 32.6018 362.079 32.8247 361.299 33.2705C360.535 33.7162 359.938 34.361 359.508 35.2047C359.078 36.0326 358.863 37.0037 358.863 38.1181C358.863 39.2325 359.078 40.2116 359.508 41.0554C359.938 41.8991 360.535 42.5518 361.299 43.0135C362.079 43.4593 362.971 43.6822 363.973 43.6822ZM377.851 35.1809C378.281 34.5759 378.87 34.0744 379.619 33.6764C380.383 33.2625 381.25 33.0555 382.222 33.0555C383.352 33.0555 384.371 33.3341 385.278 33.8913C386.202 34.4485 386.926 35.2445 387.451 36.2793C387.993 37.2982 388.263 38.4843 388.263 39.8375C388.263 41.1907 387.993 42.3926 387.451 43.4434C386.926 44.4782 386.202 45.2821 385.278 45.8552C384.371 46.4284 383.352 46.7149 382.222 46.7149C381.25 46.7149 380.391 46.5159 379.642 46.1179C378.91 45.7199 378.313 45.2184 377.851 44.6135V52.8043H374.508V33.2705H377.851V35.1809ZM384.848 39.8375C384.848 39.0415 384.681 38.3569 384.347 37.7838C384.028 37.1948 383.599 36.749 383.057 36.4465C382.532 36.144 381.959 35.9928 381.338 35.9928C380.733 35.9928 380.16 36.152 379.619 36.4704C379.093 36.7729 378.663 37.2186 378.329 37.8077C378.011 38.3967 377.851 39.0892 377.851 39.8852C377.851 40.6812 378.011 41.3738 378.329 41.9628C378.663 42.5518 379.093 43.0056 379.619 43.324C380.16 43.6264 380.733 43.7777 381.338 43.7777C381.959 43.7777 382.532 43.6185 383.057 43.3001C383.599 42.9817 384.028 42.528 384.347 41.9389C384.681 41.3499 384.848 40.6494 384.848 39.8375ZM402.513 39.5987C402.513 40.0763 402.481 40.5061 402.418 40.8882H392.746C392.826 41.8434 393.16 42.5916 393.749 43.1329C394.338 43.6742 395.063 43.9448 395.922 43.9448C397.164 43.9448 398.048 43.4115 398.573 42.3449H402.179C401.797 43.6185 401.064 44.6692 399.982 45.497C398.899 46.309 397.57 46.7149 395.994 46.7149C394.72 46.7149 393.574 46.4363 392.555 45.8791C391.552 45.306 390.764 44.502 390.191 43.4672C389.634 42.4324 389.355 41.2384 389.355 39.8852C389.355 38.5161 389.634 37.3142 390.191 36.2793C390.748 35.2445 391.528 34.4485 392.531 33.8913C393.534 33.3341 394.689 33.0555 395.994 33.0555C397.252 33.0555 398.374 33.3262 399.361 33.8675C400.364 34.4087 401.136 35.1809 401.677 36.1838C402.235 37.1709 402.513 38.3092 402.513 39.5987ZM399.051 38.6435C399.035 37.7838 398.724 37.0992 398.119 36.5898C397.514 36.0644 396.774 35.8017 395.898 35.8017C395.071 35.8017 394.37 36.0565 393.797 36.5659C393.24 37.0594 392.898 37.752 392.77 38.6435H399.051ZM411.807 33.0794C413.383 33.0794 414.657 33.5809 415.628 34.5839C416.599 35.5709 417.085 36.956 417.085 38.739V46.5H413.741V39.1927C413.741 38.142 413.479 37.338 412.953 36.7808C412.428 36.2077 411.712 35.9211 410.804 35.9211C409.881 35.9211 409.148 36.2077 408.607 36.7808C408.082 37.338 407.819 38.142 407.819 39.1927V46.5H404.476V33.2705H407.819V34.9182C408.265 34.3451 408.83 33.8993 409.515 33.5809C410.215 33.2466 410.979 33.0794 411.807 33.0794ZM428.891 36.0167V42.4165C428.891 42.8623 428.995 43.1886 429.202 43.3956C429.424 43.5866 429.791 43.6822 430.3 43.6822H431.852V46.5H429.751C426.933 46.5 425.524 45.1309 425.524 42.3926V36.0167H423.948V33.2705H425.524V29.9989H428.891V33.2705H431.852V36.0167H428.891ZM439.654 46.7149C438.38 46.7149 437.234 46.4363 436.215 45.8791C435.196 45.306 434.392 44.502 433.803 43.4672C433.23 42.4324 432.943 41.2384 432.943 39.8852C432.943 38.532 433.238 37.338 433.827 36.3032C434.432 35.2684 435.252 34.4724 436.287 33.9152C437.321 33.3421 438.476 33.0555 439.749 33.0555C441.023 33.0555 442.177 33.3421 443.212 33.9152C444.247 34.4724 445.059 35.2684 445.648 36.3032C446.253 37.338 446.555 38.532 446.555 39.8852C446.555 41.2384 446.245 42.4324 445.624 43.4672C445.019 44.502 444.191 45.306 443.14 45.8791C442.105 46.4363 440.943 46.7149 439.654 46.7149ZM439.654 43.8016C440.259 43.8016 440.824 43.6583 441.349 43.3717C441.891 43.0692 442.32 42.6235 442.639 42.0344C442.957 41.4454 443.116 40.729 443.116 39.8852C443.116 38.6276 442.782 37.6644 442.113 36.9958C441.461 36.3112 440.657 35.9689 439.701 35.9689C438.746 35.9689 437.942 36.3112 437.29 36.9958C436.653 37.6644 436.334 38.6276 436.334 39.8852C436.334 41.1429 436.645 42.114 437.266 42.7986C437.903 43.4672 438.699 43.8016 439.654 43.8016Z" fill="black"/>
<path d="M264.315 57.407V58.5382H259.683V62.1303H263.443V63.2614H259.683V68.061H258.292V57.407H264.315ZM267.462 61.045C267.707 60.566 268.053 60.1941 268.502 59.9291C268.96 59.6642 269.515 59.5317 270.168 59.5317V60.9686H269.801C268.242 60.9686 267.462 61.8144 267.462 63.5059V68.061H266.071V59.6846H267.462V61.045ZM272.568 58.3242C272.303 58.3242 272.079 58.2324 271.896 58.049C271.712 57.8656 271.62 57.6414 271.62 57.3765C271.62 57.1115 271.712 56.8873 271.896 56.7039C272.079 56.5205 272.303 56.4288 272.568 56.4288C272.823 56.4288 273.037 56.5205 273.21 56.7039C273.394 56.8873 273.485 57.1115 273.485 57.3765C273.485 57.6414 273.394 57.8656 273.21 58.049C273.037 58.2324 272.823 58.3242 272.568 58.3242ZM273.241 59.6846V68.061H271.85V59.6846H273.241ZM283.331 63.5518C283.331 63.8168 283.315 64.097 283.285 64.3925H276.59C276.641 65.2179 276.921 65.865 277.43 66.3338C277.95 66.7923 278.577 67.0216 279.311 67.0216C279.912 67.0216 280.411 66.884 280.809 66.6089C281.216 66.3236 281.501 65.9465 281.665 65.4778H283.162C282.938 66.2828 282.49 66.9401 281.817 67.4496C281.145 67.9489 280.309 68.1986 279.311 68.1986C278.516 68.1986 277.802 68.0203 277.171 67.6636C276.549 67.3069 276.06 66.8025 275.703 66.1503C275.346 65.488 275.168 64.7237 275.168 63.8575C275.168 62.9913 275.341 62.2322 275.688 61.58C276.034 60.9278 276.518 60.4285 277.14 60.082C277.772 59.7253 278.495 59.547 279.311 59.547C280.105 59.547 280.809 59.7202 281.42 60.0667C282.031 60.4132 282.5 60.8921 282.826 61.5035C283.162 62.1048 283.331 62.7875 283.331 63.5518ZM281.894 63.2614C281.894 62.7315 281.777 62.278 281.542 61.901C281.308 61.5137 280.987 61.2233 280.579 61.0297C280.182 60.8259 279.739 60.724 279.249 60.724C278.546 60.724 277.945 60.9482 277.446 61.3965C276.957 61.8449 276.676 62.4665 276.605 63.2614H281.894ZM289.324 59.5317C290.343 59.5317 291.169 59.8425 291.801 60.4641C292.432 61.0756 292.748 61.9621 292.748 63.1238V68.061H291.373V63.3225C291.373 62.4869 291.164 61.85 290.746 61.4118C290.328 60.9635 289.757 60.7393 289.034 60.7393C288.3 60.7393 287.714 60.9686 287.276 61.4271C286.848 61.8857 286.634 62.5532 286.634 63.4295V68.061H285.243V59.6846H286.634V60.8768C286.909 60.4488 287.281 60.1177 287.75 59.8833C288.229 59.6489 288.754 59.5317 289.324 59.5317ZM294.577 63.8422C294.577 62.9862 294.75 62.2373 295.097 61.5953C295.443 60.9431 295.917 60.4387 296.518 60.082C297.13 59.7253 297.813 59.547 298.567 59.547C299.219 59.547 299.825 59.6999 300.386 60.0056C300.946 60.3011 301.374 60.6934 301.67 61.1825V56.7497H303.076V68.061H301.67V66.4866C301.395 66.986 300.987 67.3987 300.447 67.7248C299.907 68.0407 299.275 68.1986 298.551 68.1986C297.808 68.1986 297.13 68.0152 296.518 67.6483C295.917 67.2815 295.443 66.7669 295.097 66.1045C294.75 65.4421 294.577 64.688 294.577 63.8422ZM301.67 63.8575C301.67 63.2257 301.542 62.6754 301.288 62.2067C301.033 61.7379 300.686 61.3813 300.248 61.1367C299.82 60.8819 299.346 60.7546 298.827 60.7546C298.307 60.7546 297.833 60.8768 297.405 61.1214C296.977 61.366 296.636 61.7226 296.381 62.1914C296.126 62.6602 295.999 63.2104 295.999 63.8422C295.999 64.4842 296.126 65.0447 296.381 65.5236C296.636 65.9924 296.977 66.3542 297.405 66.6089C297.833 66.8535 298.307 66.9758 298.827 66.9758C299.346 66.9758 299.82 66.8535 300.248 66.6089C300.686 66.3542 301.033 65.9924 301.288 65.5236C301.542 65.0447 301.67 64.4893 301.67 63.8575ZM306.894 56.7497V68.061H305.503V56.7497H306.894ZM316.556 59.6846L311.512 72.0047H310.075L311.726 67.9693L308.348 59.6846H309.891L312.52 66.4713L315.119 59.6846H316.556ZM318.474 68.1527C318.209 68.1527 317.985 68.061 317.801 67.8776C317.618 67.6942 317.526 67.47 317.526 67.205C317.526 66.9401 317.618 66.7159 317.801 66.5325C317.985 66.3491 318.209 66.2573 318.474 66.2573C318.729 66.2573 318.943 66.3491 319.116 66.5325C319.299 66.7159 319.391 66.9401 319.391 67.205C319.391 67.47 319.299 67.6942 319.116 67.8776C318.943 68.061 318.729 68.1527 318.474 68.1527Z" fill="black"/>
<path d="M258.858 12.866L259.527 9.06906H266.142L263.157 26H258.906L261.223 12.866H258.858ZM267.622 17.3077C268.084 14.6649 268.975 12.5715 270.296 11.0272C271.634 9.46706 273.48 8.68698 275.837 8.68698C277.731 8.68698 279.116 9.20438 279.992 10.2392C280.883 11.2581 281.329 12.6829 281.329 14.5137C281.329 15.2619 281.233 16.1933 281.042 17.3077C280.581 19.9504 279.681 22.0518 278.344 23.612C277.007 25.1562 275.16 25.9284 272.804 25.9284C270.909 25.9284 269.524 25.4189 268.649 24.4C267.789 23.3652 267.359 21.9324 267.359 20.1016C267.359 19.2579 267.447 18.3266 267.622 17.3077ZM277.007 17.3077C277.182 16.3206 277.269 15.5485 277.269 14.9913C277.269 14.1953 277.11 13.5824 276.792 13.1525C276.473 12.7227 275.932 12.5078 275.168 12.5078C274.069 12.5078 273.266 12.9297 272.756 13.7734C272.263 14.6172 271.888 15.7953 271.634 17.3077C271.459 18.2947 271.371 19.0668 271.371 19.624C271.371 20.42 271.53 21.033 271.849 21.4628C272.167 21.8926 272.708 22.1076 273.472 22.1076C274.571 22.1076 275.367 21.6857 275.86 20.8419C276.37 19.9982 276.752 18.8201 277.007 17.3077ZM283.319 17.3077C283.781 14.6649 284.672 12.5715 285.994 11.0272C287.331 9.46706 289.178 8.68698 291.534 8.68698C293.428 8.68698 294.814 9.20438 295.689 10.2392C296.581 11.2581 297.026 12.6829 297.026 14.5137C297.026 15.2619 296.931 16.1933 296.74 17.3077C296.278 19.9504 295.379 22.0518 294.041 23.612C292.704 25.1562 290.857 25.9284 288.501 25.9284C286.607 25.9284 285.222 25.4189 284.346 24.4C283.486 23.3652 283.057 21.9324 283.057 20.1016C283.057 19.2579 283.144 18.3266 283.319 17.3077ZM292.704 17.3077C292.879 16.3206 292.967 15.5485 292.967 14.9913C292.967 14.1953 292.808 13.5824 292.489 13.1525C292.171 12.7227 291.63 12.5078 290.865 12.5078C289.767 12.5078 288.963 12.9297 288.453 13.7734C287.96 14.6172 287.586 15.7953 287.331 17.3077C287.156 18.2947 287.068 19.0668 287.068 19.624C287.068 20.42 287.228 21.033 287.546 21.4628C287.864 21.8926 288.406 22.1076 289.17 22.1076C290.268 22.1076 291.064 21.6857 291.558 20.8419C292.067 19.9982 292.449 18.8201 292.704 17.3077ZM299.399 12.9615C299.638 11.6879 300.187 10.7009 301.046 10.0004C301.906 9.2999 302.925 8.94966 304.103 8.94966C305.122 8.94966 305.934 9.2203 306.539 9.76158C307.16 10.2869 307.47 11.0431 307.47 12.0302C307.47 12.3486 307.438 12.659 307.375 12.9615C307.152 14.2351 306.61 15.2221 305.751 15.9226C304.907 16.6231 303.896 16.9734 302.718 16.9734C301.683 16.9734 300.855 16.7027 300.235 16.1614C299.63 15.6202 299.327 14.856 299.327 13.8689C299.327 13.5665 299.351 13.264 299.399 12.9615ZM315.661 9.18846L303.482 26H299.542L311.721 9.18846H315.661ZM303.673 11.3615C302.909 11.3615 302.431 11.8949 302.24 12.9615C302.209 13.2481 302.193 13.4311 302.193 13.5107C302.193 14.2112 302.495 14.5615 303.1 14.5615C303.466 14.5615 303.777 14.4341 304.031 14.1794C304.286 13.9087 304.461 13.5028 304.557 12.9615C304.589 12.7068 304.605 12.5317 304.605 12.4361C304.605 11.7197 304.294 11.3615 303.673 11.3615ZM307.852 22.227C308.075 20.9534 308.616 19.9663 309.476 19.2658C310.336 18.5654 311.355 18.2151 312.533 18.2151C313.552 18.2151 314.364 18.4778 314.969 19.0032C315.573 19.5285 315.876 20.2847 315.876 21.2718C315.876 21.6061 315.844 21.9245 315.78 22.227C315.558 23.5006 315.016 24.4876 314.157 25.1881C313.313 25.8886 312.302 26.2388 311.124 26.2388C310.105 26.2388 309.285 25.9761 308.664 25.4508C308.059 24.9095 307.757 24.1453 307.757 23.1583C307.757 22.8399 307.789 22.5294 307.852 22.227ZM312.103 20.627C311.737 20.627 311.426 20.7623 311.172 21.033C310.917 21.2877 310.742 21.6857 310.646 22.227C310.614 22.5135 310.598 22.6966 310.598 22.7762C310.598 23.4767 310.909 23.8269 311.53 23.8269C311.896 23.8269 312.198 23.6916 312.437 23.421C312.692 23.1503 312.867 22.7523 312.963 22.227C312.994 21.9722 313.01 21.7971 313.01 21.7016C313.01 20.9852 312.708 20.627 312.103 20.627Z" fill="black"/>
<path d="M161.193 50.561H149.373V29.4098H161.193V31.7501H152.039V38.3561H160.659V40.6668H152.039V48.2208H161.193V50.561ZM171.995 50.8573C170.593 50.8573 169.339 50.5709 168.233 49.9982C167.147 49.4255 166.288 48.5368 165.656 47.3321C165.044 46.1274 164.738 44.5869 164.738 42.7108C164.738 40.7556 165.063 39.1658 165.715 37.9414C166.367 36.717 167.246 35.8184 168.352 35.2456C169.477 34.6729 170.751 34.3866 172.173 34.3866C172.983 34.3866 173.763 34.4754 174.513 34.6532C175.264 34.8112 175.876 35.0087 176.35 35.2456L175.55 37.4082C175.076 37.2304 174.523 37.0626 173.891 36.9046C173.259 36.7466 172.667 36.6676 172.114 36.6676C171.047 36.6676 170.169 36.8947 169.477 37.3489C168.786 37.8031 168.273 38.4746 167.937 39.3633C167.601 40.252 167.433 41.358 167.433 42.6812C167.433 43.9451 167.601 45.0214 167.937 45.9101C168.273 46.7988 168.776 47.4703 169.448 47.9245C170.119 48.3788 170.958 48.6059 171.966 48.6059C172.835 48.6059 173.595 48.517 174.247 48.3393C174.918 48.1615 175.53 47.9443 176.083 47.6875V49.9982C175.55 50.2747 174.958 50.482 174.306 50.6203C173.674 50.7783 172.904 50.8573 171.995 50.8573ZM193.812 42.5923C193.812 43.9155 193.634 45.0905 193.279 46.1175C192.943 47.1247 192.449 47.9838 191.798 48.6948C191.166 49.4057 190.386 49.9488 189.457 50.324C188.549 50.6795 187.532 50.8573 186.406 50.8573C185.36 50.8573 184.392 50.6795 183.503 50.324C182.614 49.9488 181.844 49.4057 181.192 48.6948C180.541 47.9838 180.027 47.1247 179.652 46.1175C179.297 45.0905 179.119 43.9155 179.119 42.5923C179.119 40.8346 179.415 39.3534 180.008 38.1488C180.6 36.9243 181.449 35.9961 182.555 35.3641C183.661 34.7124 184.974 34.3866 186.495 34.3866C187.937 34.3866 189.201 34.7124 190.287 35.3641C191.393 35.9961 192.252 36.9243 192.864 38.1488C193.496 39.3534 193.812 40.8346 193.812 42.5923ZM181.815 42.5923C181.815 43.8365 181.973 44.9227 182.289 45.8509C182.624 46.7593 183.138 47.4604 183.829 47.9542C184.52 48.4479 185.399 48.6948 186.465 48.6948C187.532 48.6948 188.411 48.4479 189.102 47.9542C189.793 47.4604 190.297 46.7593 190.613 45.8509C190.949 44.9227 191.116 43.8365 191.116 42.5923C191.116 41.3284 190.949 40.252 190.613 39.3633C190.277 38.4746 189.764 37.7933 189.072 37.3193C188.401 36.8256 187.522 36.5787 186.436 36.5787C184.816 36.5787 183.641 37.1119 182.911 38.1784C182.18 39.2448 181.815 40.7161 181.815 42.5923ZM200.699 50.561H198.092V28.0471H200.699V50.561ZM219.682 42.5923C219.682 43.9155 219.504 45.0905 219.149 46.1175C218.813 47.1247 218.319 47.9838 217.667 48.6948C217.035 49.4057 216.255 49.9488 215.327 50.324C214.419 50.6795 213.402 50.8573 212.276 50.8573C211.229 50.8573 210.262 50.6795 209.373 50.324C208.484 49.9488 207.714 49.4057 207.062 48.6948C206.41 47.9838 205.897 47.1247 205.522 46.1175C205.166 45.0905 204.989 43.9155 204.989 42.5923C204.989 40.8346 205.285 39.3534 205.877 38.1488C206.47 36.9243 207.319 35.9961 208.425 35.3641C209.531 34.7124 210.844 34.3866 212.365 34.3866C213.807 34.3866 215.07 34.7124 216.157 35.3641C217.263 35.9961 218.122 36.9243 218.734 38.1488C219.366 39.3534 219.682 40.8346 219.682 42.5923ZM207.684 42.5923C207.684 43.8365 207.842 44.9227 208.158 45.8509C208.494 46.7593 209.007 47.4604 209.699 47.9542C210.39 48.4479 211.269 48.6948 212.335 48.6948C213.402 48.6948 214.28 48.4479 214.972 47.9542C215.663 47.4604 216.167 46.7593 216.483 45.8509C216.818 44.9227 216.986 43.8365 216.986 42.5923C216.986 41.3284 216.818 40.252 216.483 39.3633C216.147 38.4746 215.633 37.7933 214.942 37.3193C214.271 36.8256 213.392 36.5787 212.306 36.5787C210.686 36.5787 209.511 37.1119 208.78 38.1784C208.05 39.2448 207.684 40.7161 207.684 42.5923ZM229.59 34.3866C230.637 34.3866 231.575 34.5841 232.404 34.979C233.253 35.374 233.974 35.9764 234.567 36.7861H234.715L235.07 34.6828H237.144V50.8276C237.144 52.3286 236.887 53.5826 236.374 54.5898C235.86 55.6168 235.08 56.387 234.034 56.9005C232.987 57.414 231.654 57.6707 230.034 57.6707C228.889 57.6707 227.832 57.5818 226.865 57.4041C225.917 57.2461 225.067 56.9992 224.317 56.6635V54.264C224.83 54.5207 225.393 54.738 226.006 54.9157C226.618 55.1132 227.279 55.2613 227.99 55.3601C228.701 55.4588 229.432 55.5082 230.182 55.5082C231.545 55.5082 232.612 55.1033 233.382 54.2936C234.172 53.5036 234.567 52.4174 234.567 51.035V50.4129C234.567 50.1759 234.577 49.8402 234.596 49.4057C234.616 48.9515 234.636 48.6355 234.656 48.4578H234.537C233.984 49.2675 233.293 49.8698 232.463 50.2648C231.654 50.6598 230.706 50.8573 229.62 50.8573C227.566 50.8573 225.956 50.1364 224.791 48.6948C223.646 47.2531 223.073 45.2387 223.073 42.6515C223.073 40.9531 223.33 39.4917 223.843 38.2673C224.376 37.0231 225.127 36.0652 226.094 35.3938C227.062 34.7223 228.227 34.3866 229.59 34.3866ZM229.945 36.5787C229.057 36.5787 228.296 36.8157 227.664 37.2897C227.052 37.7637 226.578 38.4549 226.243 39.3633C225.927 40.2718 225.769 41.3777 225.769 42.6812C225.769 44.6363 226.124 46.1372 226.835 47.1839C227.566 48.2109 228.622 48.7244 230.005 48.7244C230.814 48.7244 231.506 48.6256 232.078 48.4281C232.651 48.2109 233.125 47.885 233.5 47.4506C233.876 46.9963 234.152 46.4236 234.33 45.7324C234.508 45.0412 234.596 44.2216 234.596 43.2736V42.6515C234.596 41.2099 234.429 40.0447 234.093 39.156C233.777 38.2673 233.273 37.6155 232.582 37.2008C231.891 36.7861 231.012 36.5787 229.945 36.5787ZM244.942 34.6828V50.561H242.335V34.6828H244.942ZM243.668 28.7285C244.063 28.7285 244.409 28.8667 244.705 29.1432C245.021 29.3999 245.179 29.8147 245.179 30.3874C245.179 30.9404 245.021 31.3551 244.705 31.6316C244.409 31.9081 244.063 32.0463 243.668 32.0463C243.234 32.0463 242.868 31.9081 242.572 31.6316C242.276 31.3551 242.128 30.9404 242.128 30.3874C242.128 29.8147 242.276 29.3999 242.572 29.1432C242.868 28.8667 243.234 28.7285 243.668 28.7285Z" fill="black"/>
<line x1="253.166" y1="-1.49069e-07" x2="253.166" y2="71.5612" stroke="black" stroke-width="1.81195"/>
<path d="M260.068 40.1097V44.2055H264.533V45.5239H260.068V49.7427H265.061V51.061H258.469V38.7913H265.061V40.1097H260.068ZM266.971 44.9262C266.971 43.7309 267.241 42.6586 267.78 41.7094C268.319 40.7484 269.051 39.9984 269.977 39.4593C270.915 38.9203 271.952 38.6507 273.089 38.6507C274.425 38.6507 275.591 38.973 276.587 39.6175C277.583 40.2621 278.309 41.1761 278.766 42.3598H276.85C276.511 41.6215 276.018 41.0531 275.374 40.6547C274.741 40.2562 273.979 40.057 273.089 40.057C272.233 40.057 271.466 40.2562 270.786 40.6547C270.106 41.0531 269.573 41.6215 269.186 42.3598C268.799 43.0863 268.606 43.9418 268.606 44.9262C268.606 45.8989 268.799 46.7543 269.186 47.4926C269.573 48.2192 270.106 48.7817 270.786 49.1802C271.466 49.5786 272.233 49.7778 273.089 49.7778C273.979 49.7778 274.741 49.5845 275.374 49.1977C276.018 48.7993 276.511 48.2309 276.85 47.4926H278.766C278.309 48.6645 277.583 49.5727 276.587 50.2173C275.591 50.8501 274.425 51.1665 273.089 51.1665C271.952 51.1665 270.915 50.9028 269.977 50.3755C269.051 49.8364 268.319 49.0923 267.78 48.143C267.241 47.1938 266.971 46.1215 266.971 44.9262ZM286.79 51.1841C285.654 51.1841 284.616 50.9204 283.679 50.3931C282.741 49.854 281.997 49.1098 281.446 48.1606C280.907 47.1997 280.638 46.1215 280.638 44.9262C280.638 43.7309 280.907 42.6586 281.446 41.7094C281.997 40.7484 282.741 40.0043 283.679 39.4769C284.616 38.9378 285.654 38.6683 286.79 38.6683C287.939 38.6683 288.982 38.9378 289.919 39.4769C290.857 40.0043 291.595 40.7425 292.134 41.6918C292.673 42.641 292.943 43.7191 292.943 44.9262C292.943 46.1332 292.673 47.2114 292.134 48.1606C291.595 49.1098 290.857 49.854 289.919 50.3931C288.982 50.9204 287.939 51.1841 286.79 51.1841ZM286.79 49.7954C287.646 49.7954 288.413 49.5962 289.093 49.1977C289.784 48.7993 290.323 48.2309 290.71 47.4926C291.109 46.7543 291.308 45.8989 291.308 44.9262C291.308 43.9418 291.109 43.0863 290.71 42.3598C290.323 41.6215 289.79 41.0531 289.111 40.6547C288.431 40.2562 287.657 40.057 286.79 40.057C285.923 40.057 285.15 40.2562 284.47 40.6547C283.79 41.0531 283.251 41.6215 282.853 42.3598C282.466 43.0863 282.273 43.9418 282.273 44.9262C282.273 45.8989 282.466 46.7543 282.853 47.4926C283.251 48.2309 283.79 48.7993 284.47 49.1977C285.161 49.5962 285.935 49.7954 286.79 49.7954Z" fill="black"/>
<g clip-path="url(#clip0_303_671)">
<path d="M122.473 24.0013C118.106 23.8638 113.863 25.4649 110.676 28.4531C107.488 31.4413 105.617 35.5722 105.473 39.9388C105.617 44.3055 107.488 48.4364 110.676 51.4246C113.863 54.4127 118.106 56.0138 122.473 55.8763C126.84 56.0138 131.083 54.4127 134.27 51.4246C137.457 48.4364 139.329 44.3055 139.473 39.9388C139.329 35.5722 137.457 31.4413 134.27 28.4531C131.083 25.4649 126.84 23.8638 122.473 24.0013V24.0013ZM136.732 38.4513L134.118 37.8138C133.587 37.6651 133.544 37.6226 133.502 37.5588C133.183 37.1338 132.822 36.5601 132.482 36.0076C132.482 35.8163 132.205 35.5188 132.142 35.3488C132.078 35.1788 132.885 34.0738 133.225 33.5638C133.592 33.1828 134.015 32.8603 134.479 32.6076C135.715 34.3323 136.49 36.3436 136.732 38.4513V38.4513ZM122.473 26.6576L122.282 27.0188C122.263 26.9493 122.263 26.8759 122.282 26.8063C122.282 26.9338 121.963 27.1251 121.75 27.3376L121.113 27.9538C120.822 28.2569 120.646 28.6519 120.615 29.0708C120.584 29.4896 120.7 29.9062 120.943 30.2488H120.688C120.352 30.2585 120.023 30.3438 119.725 30.4984C119.427 30.6529 119.168 30.8727 118.967 31.1413C118.732 31.4651 118.572 31.8371 118.498 32.2304C118.425 32.6236 118.44 33.0283 118.542 33.4151V33.5638C118.232 33.6191 117.926 33.6972 117.628 33.7976L117.118 33.9676L115.758 34.4138C115.353 34.5325 114.983 34.75 114.683 35.0467C114.382 35.3434 114.16 35.7101 114.037 36.1138C113.938 36.4526 113.925 36.8107 113.999 37.1557C114.073 37.5008 114.232 37.8219 114.462 38.0901C115.313 39.01 116.302 39.7915 117.394 40.4063C118.463 41.1185 119.674 41.5898 120.943 41.7876H124.513C124.943 41.7671 125.371 41.8557 125.757 42.0452C126.144 42.2347 126.476 42.5189 126.723 42.8713C126.838 42.9906 126.924 43.1357 126.972 43.2947C127.02 43.4537 127.029 43.6218 126.999 43.7851C126.957 44.0558 126.847 44.3115 126.68 44.5288C125.623 45.3937 124.907 46.6063 124.662 47.9501C124.386 48.9489 124.046 49.9285 123.642 50.8826C123.387 51.5413 123.153 52.1788 122.983 52.6888C122.27 52.7401 121.554 52.6828 120.858 52.5188C121.027 50.94 120.652 49.3506 119.795 48.0138C119.081 47.1694 118.683 46.1025 118.669 44.9963C118.806 43.947 118.568 42.8829 117.997 41.9924C117.425 41.1018 116.557 40.4421 115.545 40.1301C113.166 38.6515 111.078 36.7502 109.383 34.5201C110.611 32.1163 112.489 30.1052 114.803 28.7153C117.117 27.3254 119.774 26.6125 122.473 26.6576V26.6576ZM108.129 39.9388C108.129 39.1106 108.214 38.2845 108.384 37.4738C110.129 39.5618 112.247 41.3058 114.632 42.6163C115.907 43.0838 116.098 43.5726 116.098 44.9963C116.103 46.7726 116.752 48.4867 117.925 49.8201C118.239 50.7419 118.34 51.7224 118.223 52.6888C115.383 51.9502 112.861 50.3059 111.04 48.0052C109.218 45.7044 108.196 42.8726 108.129 39.9388V39.9388ZM125.809 52.8588C125.809 52.5401 126.064 52.1788 126.192 51.8388C126.675 50.7398 127.066 49.6026 127.36 48.4388C127.527 47.7181 127.931 47.0744 128.508 46.6113C129.252 45.8803 129.685 44.8911 129.719 43.8488C129.745 43.3547 129.67 42.8605 129.498 42.3964C129.327 41.9323 129.062 41.5082 128.72 41.1501C128.209 40.523 127.559 40.0237 126.821 39.6917C126.084 39.3598 125.279 39.2043 124.47 39.2376H121.092C119.505 38.8077 118.046 37.9982 116.842 36.8788L117.84 36.5388L118.414 36.3688C118.667 36.2532 118.944 36.2021 119.222 36.2201L119.413 36.5388C119.572 36.8371 119.836 37.0654 120.155 37.1793C120.473 37.2933 120.822 37.2846 121.134 37.1551C121.443 37.0109 121.688 36.7575 121.821 36.4436C121.955 36.1298 121.967 35.7777 121.857 35.4551V35.0726C121.623 34.4351 121.347 33.5426 121.177 32.9476C121.728 32.9707 122.275 32.8423 122.758 32.5763C123.241 32.3103 123.643 31.9169 123.918 31.4388C124.05 31.0828 124.084 30.6979 124.017 30.3241C123.949 29.9504 123.783 29.6016 123.535 29.3138C123.785 29.0894 124.02 28.848 124.237 28.5913C124.432 28.3579 124.574 28.0854 124.655 27.7921C124.736 27.4988 124.752 27.1917 124.704 26.8913C127.674 27.3286 130.44 28.6632 132.63 30.7163C131.987 31.1091 131.419 31.6127 130.952 32.2038C130.445 32.9436 129.991 33.7175 129.592 34.5201C129.42 35.0154 129.377 35.5461 129.466 36.0626C129.555 36.5792 129.774 37.0647 130.102 37.4738C130.484 38.1326 130.909 38.7701 131.292 39.3013C131.819 39.9659 132.578 40.4062 133.417 40.5338C133.884 40.6613 135.542 41.0013 136.71 41.2351C136.335 44.0683 135.081 46.7127 133.126 48.7974C131.171 50.882 128.612 52.3023 125.809 52.8588V52.8588Z" fill="black"/>
</g>
<g filter="url(#filter0_d_303_671)">
<path d="M15.8341 29.0393C14.9472 29.0393 14.1502 28.885 13.4433 28.5765C12.7492 28.2552 12.2029 27.8182 11.8044 27.2654C11.4059 26.6999 11.2003 26.0508 11.1874 25.3181H13.0576C13.1219 25.9479 13.379 26.4814 13.8289 26.9184C14.2916 27.3426 14.96 27.5546 15.8341 27.5546C16.6696 27.5546 17.3251 27.349 17.8007 26.9377C18.2891 26.5135 18.5334 25.9736 18.5334 25.3181C18.5334 24.8039 18.392 24.3862 18.1092 24.0648C17.8264 23.7435 17.4729 23.4993 17.0487 23.3322C16.6246 23.1651 16.0526 22.9851 15.3328 22.7923C14.4459 22.561 13.7325 22.3296 13.1926 22.0982C12.6656 21.8668 12.2093 21.5069 11.8237 21.0185C11.4509 20.5172 11.2645 19.8488 11.2645 19.0133C11.2645 18.2806 11.4509 17.6315 11.8237 17.066C12.1964 16.5004 12.717 16.0634 13.3854 15.7549C14.0667 15.4464 14.8443 15.2921 15.7184 15.2921C16.9781 15.2921 18.0064 15.6071 18.8033 16.2369C19.6131 16.8667 20.0694 17.7022 20.1722 18.7434H18.2442C18.1799 18.2292 17.91 17.7793 17.4344 17.3937C16.9588 16.9953 16.3289 16.796 15.5449 16.796C14.8122 16.796 14.2145 16.9888 13.7518 17.3745C13.289 17.7472 13.0576 18.2742 13.0576 18.9555C13.0576 19.4439 13.1926 19.8424 13.4625 20.1509C13.7453 20.4594 14.086 20.6972 14.4844 20.8643C14.8957 21.0185 15.4677 21.1985 16.2004 21.4041C17.0873 21.6483 17.8007 21.8926 18.3406 22.1368C18.8804 22.3681 19.3432 22.7345 19.7288 23.2358C20.1144 23.7242 20.3072 24.3926 20.3072 25.241C20.3072 25.8965 20.1337 26.5135 19.7866 27.0919C19.4396 27.6703 18.9254 28.1395 18.2442 28.4994C17.5629 28.8593 16.7595 29.0393 15.8341 29.0393ZM23.0048 23.5828C23.0048 22.5031 23.2233 21.5584 23.6604 20.7486C24.0974 19.9259 24.6951 19.2897 25.4535 18.8398C26.2247 18.3899 27.0795 18.165 28.0178 18.165C28.9433 18.165 29.7466 18.3642 30.4279 18.7627C31.1091 19.1611 31.6169 19.6624 31.9511 20.2666V18.3385H33.7249V28.9043H31.9511V26.9377C31.604 27.5546 31.0834 28.0688 30.3893 28.4801C29.7081 28.8786 28.9111 29.0778 27.9985 29.0778C27.0602 29.0778 26.2118 28.8465 25.4535 28.3837C24.6951 27.921 24.0974 27.2719 23.6604 26.4364C23.2233 25.6009 23.0048 24.6497 23.0048 23.5828ZM31.9511 23.6021C31.9511 22.8052 31.7904 22.1111 31.469 21.5198C31.1477 20.9285 30.7107 20.4786 30.158 20.1701C29.6181 19.8488 29.0204 19.6881 28.3649 19.6881C27.7093 19.6881 27.1116 19.8424 26.5717 20.1509C26.0319 20.4594 25.6013 20.9092 25.2799 21.5005C24.9586 22.0918 24.7979 22.7859 24.7979 23.5828C24.7979 24.3926 24.9586 25.0996 25.2799 25.7037C25.6013 26.295 26.0319 26.7513 26.5717 27.0726C27.1116 27.3811 27.7093 27.5354 28.3649 27.5354C29.0204 27.5354 29.6181 27.3811 30.158 27.0726C30.7107 26.7513 31.1477 26.295 31.469 25.7037C31.7904 25.0996 31.9511 24.399 31.9511 23.6021ZM41.3944 27.2847L44.6721 18.3385H46.5423L42.397 28.9043H40.3532L36.2079 18.3385H38.0974L41.3944 27.2847ZM58.6804 23.2165C58.6804 23.5507 58.6611 23.9042 58.6226 24.2769H50.1776C50.2419 25.3181 50.5954 26.1343 51.2381 26.7256C51.8936 27.304 52.6841 27.5932 53.6096 27.5932C54.368 27.5932 54.9978 27.4197 55.4991 27.0726C56.0132 26.7127 56.3731 26.2371 56.5788 25.6459H58.4683C58.1855 26.6613 57.62 27.4904 56.7716 28.1331C55.9233 28.7629 54.8693 29.0778 53.6096 29.0778C52.607 29.0778 51.7072 28.8529 50.9103 28.403C50.1262 27.9531 49.5092 27.3169 49.0593 26.4942C48.6095 25.6587 48.3845 24.6947 48.3845 23.6021C48.3845 22.5095 48.603 21.5519 49.0401 20.7293C49.4771 19.9066 50.0876 19.2768 50.8717 18.8398C51.6687 18.3899 52.5813 18.165 53.6096 18.165C54.6122 18.165 55.4991 18.3835 56.2703 18.8205C57.0415 19.2575 57.6328 19.8617 58.0441 20.6329C58.4683 21.3913 58.6804 22.2525 58.6804 23.2165ZM56.868 22.8502C56.868 22.1818 56.7202 21.6098 56.4246 21.1342C56.1289 20.6457 55.724 20.2794 55.2099 20.0352C54.7086 19.7781 54.1494 19.6496 53.5325 19.6496C52.6455 19.6496 51.8872 19.9324 51.2573 20.4979C50.6404 21.0635 50.2869 21.8476 50.1969 22.8502H56.868Z" fill="black"/>
<path d="M29.48 39.0653V45.293C29.48 45.8071 29.5893 46.1734 29.8078 46.392C30.0263 46.5976 30.4055 46.7004 30.9453 46.7004H32.2371V48.1851H30.6561C29.6792 48.1851 28.9466 47.9601 28.4581 47.5102C27.9697 47.0604 27.7255 46.3213 27.7255 45.293V39.0653H26.3565V37.6192H27.7255V34.9585H29.48V37.6192H32.2371V39.0653H29.48ZM40.3786 37.4264C41.1755 37.4264 41.8953 37.6 42.538 37.947C43.1807 38.2812 43.682 38.7889 44.0419 39.4702C44.4146 40.1514 44.601 40.9805 44.601 41.9574V48.1851H42.8658V42.208C42.8658 41.154 42.6023 40.3507 42.0753 39.798C41.5482 39.2324 40.8284 38.9496 39.9158 38.9496C38.9903 38.9496 38.2513 39.2388 37.6985 39.8172C37.1587 40.3957 36.8888 41.2376 36.8888 42.343V48.1851H35.1342V33.9174H36.8888V39.1231C37.2358 38.5833 37.7114 38.1655 38.3155 37.8699C38.9325 37.5743 39.6202 37.4264 40.3786 37.4264ZM57.8786 42.4973C57.8786 42.8315 57.8593 43.1849 57.8208 43.5577H49.3759C49.4401 44.5989 49.7936 45.4151 50.4363 46.0063C51.0918 46.5848 51.8823 46.874 52.8078 46.874C53.5662 46.874 54.196 46.7004 54.6973 46.3534C55.2115 45.9935 55.5714 45.5179 55.777 44.9266H57.6665C57.3838 45.9421 56.8182 46.7711 55.9698 47.4138C55.1215 48.0437 54.0675 48.3586 52.8078 48.3586C51.8052 48.3586 50.9055 48.1336 50.1085 47.6838C49.3244 47.2339 48.7075 46.5976 48.2576 45.775C47.8077 44.9395 47.5827 43.9754 47.5827 42.8829C47.5827 41.7903 47.8013 40.8327 48.2383 40.0101C48.6753 39.1874 49.2859 38.5576 50.07 38.1205C50.8669 37.6707 51.7795 37.4457 52.8078 37.4457C53.8104 37.4457 54.6973 37.6642 55.4685 38.1013C56.2398 38.5383 56.831 39.1424 57.2424 39.9136C57.6665 40.672 57.8786 41.5332 57.8786 42.4973ZM56.0662 42.1309C56.0662 41.4625 55.9184 40.8905 55.6228 40.4149C55.3272 39.9265 54.9223 39.5602 54.4081 39.3159C53.9068 39.0589 53.3477 38.9303 52.7307 38.9303C51.8438 38.9303 51.0854 39.2131 50.4556 39.7787C49.8386 40.3442 49.4851 41.1283 49.3951 42.1309H56.0662Z" fill="black"/>
<path d="M3.44744 56.3552C3.79449 55.751 4.30864 55.2497 4.98989 54.8513C5.684 54.44 6.48736 54.2343 7.39998 54.2343C8.3383 54.2343 9.18665 54.4592 9.94502 54.9091C10.7163 55.359 11.3204 55.9953 11.7574 56.8179C12.1944 57.6277 12.413 58.5724 12.413 59.6522C12.413 60.719 12.1944 61.6702 11.7574 62.5057C11.3204 63.3412 10.7163 63.9903 9.94502 64.4531C9.18665 64.9158 8.3383 65.1472 7.39998 65.1472C6.50021 65.1472 5.70328 64.9479 5.00917 64.5495C4.32792 64.1381 3.80734 63.6304 3.44744 63.0263V69.9866H1.69289V54.4078H3.44744V56.3552ZM10.6198 59.6522C10.6198 58.8552 10.4592 58.1611 10.1378 57.5699C9.81649 56.9786 9.37946 56.5287 8.82675 56.2202C8.28689 55.9117 7.68919 55.7575 7.03364 55.7575C6.39095 55.7575 5.79325 55.9181 5.24054 56.2395C4.70068 56.548 4.26365 57.0043 3.92945 57.6084C3.60811 58.1997 3.44744 58.8874 3.44744 59.6714C3.44744 60.4684 3.60811 61.1689 3.92945 61.773C4.26365 62.3643 4.70068 62.8206 5.24054 63.142C5.79325 63.4505 6.39095 63.6047 7.03364 63.6047C7.68919 63.6047 8.28689 63.4505 8.82675 63.142C9.37946 62.8206 9.81649 62.3643 10.1378 61.773C10.4592 61.1689 10.6198 60.462 10.6198 59.6522ZM17.2482 50.7059V64.9736H15.4936V50.7059H17.2482ZM20.3542 59.6522C20.3542 58.5724 20.5727 57.6277 21.0097 56.8179C21.4468 55.9953 22.0445 55.359 22.8028 54.9091C23.5741 54.4592 24.4288 54.2343 25.3672 54.2343C26.2926 54.2343 27.096 54.4335 27.7772 54.832C28.4585 55.2305 28.9662 55.7318 29.3004 56.3359V54.4078H31.0742V64.9736H29.3004V63.007C28.9534 63.624 28.4328 64.1381 27.7387 64.5495C27.0574 64.9479 26.2605 65.1472 25.3479 65.1472C24.4096 65.1472 23.5612 64.9158 22.8028 64.4531C22.0445 63.9903 21.4468 63.3412 21.0097 62.5057C20.5727 61.6702 20.3542 60.719 20.3542 59.6522ZM29.3004 59.6714C29.3004 58.8745 29.1397 58.1804 28.8184 57.5891C28.4971 56.9979 28.06 56.548 27.5073 56.2395C26.9675 55.9181 26.3698 55.7575 25.7142 55.7575C25.0587 55.7575 24.461 55.9117 23.9211 56.2202C23.3812 56.5287 22.9506 56.9786 22.6293 57.5699C22.308 58.1611 22.1473 58.8552 22.1473 59.6522C22.1473 60.462 22.308 61.1689 22.6293 61.773C22.9506 62.3643 23.3812 62.8206 23.9211 63.142C24.461 63.4505 25.0587 63.6047 25.7142 63.6047C26.3698 63.6047 26.9675 63.4505 27.5073 63.142C28.06 62.8206 28.4971 62.3643 28.8184 61.773C29.1397 61.1689 29.3004 60.4684 29.3004 59.6714ZM39.9584 54.215C41.2438 54.215 42.2849 54.6071 43.0819 55.3911C43.8788 56.1624 44.2773 57.2806 44.2773 58.746V64.9736H42.542V58.9966C42.542 57.9426 42.2785 57.1393 41.7515 56.5865C41.2245 56.021 40.5047 55.7382 39.5921 55.7382C38.6666 55.7382 37.9275 56.0274 37.3748 56.6058C36.8349 57.1842 36.565 58.0262 36.565 59.1316V64.9736H34.8105V54.4078H36.565V55.9117C36.9121 55.3719 37.3812 54.9541 37.9725 54.6585C38.5766 54.3628 39.2386 54.215 39.9584 54.215ZM57.5549 59.2858C57.5549 59.62 57.5356 59.9735 57.4971 60.3463H49.0521C49.1164 61.3874 49.4699 62.2036 50.1126 62.7949C50.7681 63.3733 51.5586 63.6625 52.4841 63.6625C53.2424 63.6625 53.8723 63.489 54.3736 63.142C54.8877 62.7821 55.2476 62.3065 55.4533 61.7152H57.3428C57.06 62.7306 56.4945 63.5597 55.6461 64.2024C54.7978 64.8322 53.7437 65.1472 52.4841 65.1472C51.4815 65.1472 50.5817 64.9222 49.7848 64.4723C49.0007 64.0225 48.3837 63.3862 47.9338 62.5635C47.484 61.7281 47.259 60.764 47.259 59.6714C47.259 58.5789 47.4775 57.6213 47.9146 56.7986C48.3516 55.976 48.9621 55.3461 49.7462 54.9091C50.5432 54.4592 51.4558 54.2343 52.4841 54.2343C53.4867 54.2343 54.3736 54.4528 55.1448 54.8898C55.916 55.3269 56.5073 55.931 56.9186 56.7022C57.3428 57.4606 57.5549 58.3218 57.5549 59.2858ZM55.7425 58.9195C55.7425 58.2511 55.5947 57.6791 55.2991 57.2035C55.0034 56.7151 54.5985 56.3487 54.0844 56.1045C53.5831 55.8474 53.0239 55.7189 52.407 55.7189C51.52 55.7189 50.7617 56.0017 50.1318 56.5673C49.5149 57.1328 49.1614 57.9169 49.0714 58.9195H55.7425ZM62.7822 55.8539V62.0815C62.7822 62.5957 62.8915 62.962 63.11 63.1805C63.3285 63.3862 63.7077 63.489 64.2475 63.489H65.5394V64.9736H63.9583C62.9814 64.9736 62.2488 64.7487 61.7603 64.2988C61.2719 63.8489 61.0277 63.1098 61.0277 62.0815V55.8539H59.6587V54.4078H61.0277V51.7471H62.7822V54.4078H65.5394V55.8539H62.7822ZM68.9956 65.0893C68.6614 65.0893 68.3786 64.9736 68.1472 64.7423C67.9158 64.5109 67.8002 64.2281 67.8002 63.8939C67.8002 63.5597 67.9158 63.2769 68.1472 63.0456C68.3786 62.8142 68.6614 62.6985 68.9956 62.6985C69.3169 62.6985 69.5868 62.8142 69.8054 63.0456C70.0367 63.2769 70.1524 63.5597 70.1524 63.8939C70.1524 64.2281 70.0367 64.5109 69.8054 64.7423C69.5868 64.9736 69.3169 65.0893 68.9956 65.0893Z" fill="black"/>
</g>
<defs>
<filter id="filter0_d_303_671" x="1.69287" y="14.292" width="76.4595" height="62.6948" filterUnits="userSpaceOnUse" color-interpolation-filters="sRGB">
<feFlood flood-opacity="0" result="BackgroundImageFix"/>
<feColorMatrix in="SourceAlpha" type="matrix" values="0 0 0 0 0 0 0 0 0 0 0 0 0 0 0 0 0 0 127 0" result="hardAlpha"/>
<feOffset dx="4" dy="3"/>
<feGaussianBlur stdDeviation="2"/>
<feComposite in2="hardAlpha" operator="out"/>
<feColorMatrix type="matrix" values="0 0 0 0 0 0 0 0 0 0 0 0 0 0 0 0 0 0 0.25 0"/>
<feBlend mode="normal" in2="BackgroundImageFix" result="effect1_dropShadow_303_671"/>
<feBlend mode="normal" in="SourceGraphic" in2="effect1_dropShadow_303_671" result="shape"/>
</filter>
<clipPath id="clip0_303_671">
<rect width="34" height="34" fill="white" transform="translate(105.473 22.939)"/>
</clipPath>
</defs>
</svg>
