<svg width="25" height="25" viewBox="0 0 25 25" fill="none" xmlns="http://www.w3.org/2000/svg">
<path d="M23.8369 5.46491C23.0019 5.83491 22.1049 6.08491 21.1619 6.19791C22.1349 5.6157 22.8628 4.69938 23.2099 3.61991C22.2957 4.1629 21.2952 4.5451 20.2519 4.74991C19.5502 4.00077 18.6209 3.50424 17.6082 3.33738C16.5954 3.17053 15.556 3.3427 14.6511 3.82716C13.7462 4.31162 13.0266 5.08127 12.604 6.01661C12.1814 6.95195 12.0794 8.00066 12.3139 8.99991C10.4615 8.90691 8.64949 8.42546 6.99528 7.58681C5.34108 6.74817 3.8817 5.57107 2.71186 4.13191C2.31186 4.82191 2.08186 5.62191 2.08186 6.47391C2.08141 7.2409 2.27029 7.99615 2.63174 8.67264C2.99318 9.34913 3.51602 9.92595 4.15386 10.3519C3.41414 10.3284 2.69073 10.1285 2.04386 9.76891V9.82891C2.04378 10.9046 2.41589 11.9473 3.09704 12.7799C3.77819 13.6125 4.72643 14.1838 5.78086 14.3969C5.09464 14.5826 4.3752 14.61 3.67686 14.4769C3.97436 15.4025 4.55385 16.2119 5.33423 16.7918C6.1146 17.3717 7.05678 17.6931 8.02886 17.7109C6.37869 19.0063 4.34075 19.709 2.24286 19.7059C1.87124 19.706 1.49994 19.6843 1.13086 19.6409C3.26034 21.0101 5.7392 21.7367 8.27086 21.7339C16.8409 21.7339 21.5259 14.6359 21.5259 8.47991C21.5259 8.27991 21.5209 8.07791 21.5119 7.87791C22.4232 7.21888 23.2098 6.4028 23.8349 5.46791L23.8369 5.46491Z" fill="white"/>
</svg>
