<svg width="12" height="19" viewBox="0 0 12 19" fill="none" xmlns="http://www.w3.org/2000/svg">
<path d="M11.0627 1.00787C11.0627 0.875258 11.0101 0.748081 10.9163 0.654313C10.8225 0.560544 10.6954 0.507866 10.5627 0.507866H8.06274C6.80387 0.445157 5.57134 0.883257 4.63447 1.72645C3.69759 2.56963 3.13253 3.74936 3.06274 5.00787V7.70787H0.562744C0.430136 7.70787 0.302959 7.76054 0.209191 7.85431C0.115423 7.94808 0.0627441 8.07526 0.0627441 8.20787V10.8079C0.0627441 10.9405 0.115423 11.0677 0.209191 11.1614C0.302959 11.2552 0.430136 11.3079 0.562744 11.3079H3.06274V18.0079C3.06274 18.1405 3.11542 18.2677 3.20919 18.3614C3.30296 18.4552 3.43014 18.5079 3.56274 18.5079H6.56274C6.69535 18.5079 6.82253 18.4552 6.9163 18.3614C7.01007 18.2677 7.06274 18.1405 7.06274 18.0079V11.3079H9.68274C9.79393 11.3095 9.90248 11.2739 9.99123 11.2069C10.08 11.1399 10.1438 11.0452 10.1727 10.9379L10.8927 8.33787C10.9126 8.26399 10.9153 8.18653 10.9006 8.11146C10.8858 8.03638 10.854 7.96569 10.8077 7.90484C10.7613 7.84398 10.7016 7.79457 10.6331 7.76042C10.5646 7.72628 10.4893 7.70829 10.4127 7.70787H7.06274V5.00787C7.08762 4.76034 7.20386 4.53098 7.38877 4.36456C7.57368 4.19814 7.81398 4.10662 8.06274 4.10787H10.5627C10.6954 4.10787 10.8225 4.05519 10.9163 3.96142C11.0101 3.86765 11.0627 3.74047 11.0627 3.60787V1.00787Z" fill="white"/>
</svg>
