<svg width="23" height="23" viewBox="0 0 23 23" fill="none" xmlns="http://www.w3.org/2000/svg">
<path fill-rule="evenodd" clip-rule="evenodd" d="M7.4423 0.567953C8.61529 0.513953 8.9893 0.501953 11.9773 0.501953C14.9653 0.501953 15.3393 0.514953 16.5113 0.567953C17.6833 0.620953 18.4833 0.807953 19.1833 1.07895C19.9163 1.35595 20.5813 1.78895 21.1313 2.34895C21.6913 2.89795 22.1233 3.56195 22.3993 4.29595C22.6713 4.99595 22.8573 5.79595 22.9113 6.96595C22.9653 8.14095 22.9773 8.51495 22.9773 11.502C22.9773 14.49 22.9643 14.864 22.9113 16.037C22.8583 17.207 22.6713 18.007 22.3993 18.707C22.1233 19.441 21.6906 20.1062 21.1313 20.656C20.5813 21.216 19.9163 21.648 19.1833 21.924C18.4833 22.196 17.6833 22.382 16.5133 22.436C15.3393 22.49 14.9653 22.502 11.9773 22.502C8.9893 22.502 8.61529 22.489 7.4423 22.436C6.27229 22.383 5.47229 22.196 4.77229 21.924C4.03822 21.6479 3.37312 21.2152 2.82329 20.656C2.26367 20.1066 1.83061 19.4418 1.55429 18.708C1.28329 18.008 1.09729 17.208 1.04329 16.038C0.989295 14.863 0.977295 14.489 0.977295 11.502C0.977295 8.51395 0.990295 8.13995 1.04329 6.96795C1.09629 5.79595 1.28329 4.99595 1.55429 4.29595C1.83102 3.56203 2.26441 2.89727 2.82429 2.34795C3.37334 1.78845 4.03777 1.3554 4.7713 1.07895C5.47129 0.807953 6.2713 0.621953 7.4413 0.567953H7.4423ZM16.4223 2.54795C15.2623 2.49495 14.9143 2.48395 11.9773 2.48395C9.04029 2.48395 8.69229 2.49495 7.53229 2.54795C6.45929 2.59695 5.8773 2.77595 5.4893 2.92695C4.97629 3.12695 4.6093 3.36395 4.2243 3.74895C3.85934 4.104 3.57848 4.53624 3.40229 5.01395C3.25129 5.40195 3.07229 5.98395 3.02329 7.05695C2.97029 8.21695 2.9593 8.56495 2.9593 11.502C2.9593 14.439 2.97029 14.787 3.02329 15.947C3.07229 17.02 3.25129 17.602 3.40229 17.99C3.57829 18.467 3.8593 18.9 4.2243 19.255C4.5793 19.62 5.01229 19.901 5.4893 20.077C5.8773 20.228 6.45929 20.407 7.53229 20.456C8.69229 20.509 9.0393 20.52 11.9773 20.52C14.9153 20.52 15.2623 20.509 16.4223 20.456C17.4953 20.407 18.0773 20.228 18.4653 20.077C18.9783 19.877 19.3453 19.64 19.7303 19.255C20.0953 18.9 20.3763 18.467 20.5523 17.99C20.7033 17.602 20.8823 17.02 20.9313 15.947C20.9843 14.787 20.9953 14.439 20.9953 11.502C20.9953 8.56495 20.9843 8.21695 20.9313 7.05695C20.8823 5.98395 20.7033 5.40195 20.5523 5.01395C20.3523 4.50095 20.1153 4.13395 19.7303 3.74895C19.3752 3.38402 18.943 3.10316 18.4653 2.92695C18.0773 2.77595 17.4953 2.59695 16.4223 2.54795ZM10.5723 14.893C11.357 15.2196 12.2307 15.2637 13.0442 15.0177C13.8578 14.7717 14.5607 14.2509 15.0329 13.5442C15.5051 12.8375 15.7174 11.9888 15.6333 11.1431C15.5493 10.2973 15.1743 9.50693 14.5723 8.90695C14.1885 8.52343 13.7245 8.22977 13.2136 8.0471C12.7027 7.86443 12.1577 7.79731 11.6178 7.85057C11.0779 7.90382 10.5564 8.07613 10.0911 8.35508C9.62575 8.63404 9.22804 9.0127 8.9266 9.4638C8.62516 9.91491 8.42748 10.4272 8.34781 10.9639C8.26814 11.5006 8.30845 12.0482 8.46583 12.5675C8.62322 13.0867 8.89378 13.5646 9.25802 13.9667C9.62226 14.3688 10.0711 14.6851 10.5723 14.893ZM7.97929 7.50395C8.50432 6.97893 9.12761 6.56246 9.81359 6.27831C10.4996 5.99417 11.2348 5.84793 11.9773 5.84793C12.7198 5.84793 13.455 5.99417 14.141 6.27831C14.827 6.56246 15.4503 6.97893 15.9753 7.50395C16.5003 8.02898 16.9168 8.65227 17.2009 9.33825C17.4851 10.0242 17.6313 10.7595 17.6313 11.502C17.6313 12.2445 17.4851 12.9797 17.2009 13.6657C16.9168 14.3516 16.5003 14.9749 15.9753 15.5C14.915 16.5603 13.4768 17.156 11.9773 17.156C10.4778 17.156 9.03963 16.5603 7.97929 15.5C6.91896 14.4396 6.32327 13.0015 6.32327 11.502C6.32327 10.0024 6.91896 8.56429 7.97929 7.50395ZM18.8853 6.68995C19.0154 6.56722 19.1196 6.41963 19.1916 6.25593C19.2636 6.09222 19.3021 5.91572 19.3047 5.73688C19.3073 5.55804 19.274 5.3805 19.2068 5.21476C19.1395 5.04903 19.0397 4.89846 18.9133 4.77199C18.7868 4.64552 18.6362 4.54571 18.4705 4.47847C18.3047 4.41123 18.1272 4.37793 17.9484 4.38054C17.7695 4.38314 17.593 4.42161 17.4293 4.49365C17.2656 4.56569 17.118 4.66985 16.9953 4.79995C16.7566 5.05298 16.6259 5.38907 16.631 5.73688C16.6361 6.08469 16.7765 6.41683 17.0225 6.6628C17.2684 6.90876 17.6006 7.04918 17.9484 7.05425C18.2962 7.05932 18.6323 6.92864 18.8853 6.68995Z" fill="white"/>
</svg>
