<svg width="25" height="25" viewBox="0 0 25 25" fill="none" xmlns="http://www.w3.org/2000/svg">
<path fill-rule="evenodd" clip-rule="evenodd" d="M10.334 9.47388H14.048V11.3239C14.583 10.2599 15.955 9.30388 18.016 9.30388C21.967 9.30388 22.905 11.4219 22.905 15.3079V22.5049H18.905V16.1929C18.905 13.9799 18.37 12.7319 17.008 12.7319C15.119 12.7319 14.334 14.0769 14.334 16.1919V22.5049H10.334V9.47388ZM3.47503 22.3349H7.47503V9.30388H3.47503V22.3349ZM8.04803 5.05488C8.04818 5.39016 7.98169 5.72212 7.85242 6.03147C7.72315 6.34082 7.53368 6.6214 7.29503 6.85688C6.81143 7.33751 6.15684 7.60654 5.47503 7.60488C4.79442 7.60443 4.14134 7.33608 3.65703 6.85788C3.41924 6.6216 3.23042 6.34071 3.10137 6.03131C2.97233 5.72192 2.90561 5.39011 2.90503 5.05488C2.90503 4.37788 3.17503 3.72988 3.65803 3.25188C4.14191 2.77304 4.79527 2.50458 5.47603 2.50488C6.15803 2.50488 6.81203 2.77388 7.29503 3.25188C7.77703 3.72988 8.04803 4.37788 8.04803 5.05488Z" fill="white"/>
</svg>
